<svg version="1.1" xmlns="http://www.w3.org/2000/svg" xmlns:xlink="http://www.w3.org/1999/xlink" x="0px" y="0px" viewBox="0 0 256 256" enable-background="new 0 0 256 256" xml:space="preserve">
<g><g><path fill="#000000" d="M128,227.8c-45.7,0-84.4-30.9-96.1-72.9h-9c1.3,5.2,3.1,10.3,5.2,15.3c5.5,12.9,13.3,24.5,23.2,34.5c9.9,10,21.6,17.8,34.5,23.2c13.4,5.7,27.6,8.5,42.2,8.5c14.6,0,28.9-2.9,42.2-8.5c12.9-5.5,24.5-13.3,34.5-23.2c10-10,17.8-21.6,23.2-34.5c1.3-3.2,2.5-6.4,3.5-9.6c0.9-2.8-1.2-5.6-4.1-5.6l0,0c-1.9,0-3.6,1.2-4.1,3C210.5,198.4,172.6,227.8,128,227.8z"/><path fill="#000000" d="M128,28.2c45.5,0,84,30.6,96,72.3h9c-1.3-5-3-9.9-5-14.7c-5.5-12.9-13.3-24.5-23.2-34.5c-10-10-21.6-17.8-34.5-23.2c-13.4-5.7-27.6-8.5-42.3-8.5c-14.6,0-28.9,2.9-42.2,8.5c-12.9,5.5-24.5,13.3-34.5,23.2c-10,10-17.8,21.6-23.2,34.5c-1.3,3-2.4,5.9-3.3,9c-0.9,2.8,1.2,5.7,4.1,5.7l0,0c1.9,0,3.5-1.2,4.1-3C45.9,57.3,83.6,28.2,128,28.2z"/><path fill="#000000" d="M228.9,107.6l-29.6-11.1c-2.2-0.8-3.4-3.3-2.5-5.6l0,0c0.8-2.2,3.3-3.4,5.6-2.5l29.6,11.1c2.2,0.8,3.4,3.3,2.5,5.6l0,0C233.6,107.3,231.1,108.4,228.9,107.6z"/><path fill="#000000" d="M229.1,107.2L229.1,107.2c-2.2-0.8-3.4-3.3-2.5-5.6l11.1-29.6c0.8-2.2,3.3-3.4,5.6-2.5l0,0c2.2,0.8,3.4,3.3,2.5,5.6l-11,29.6C233.8,106.9,231.3,108.1,229.1,107.2z"/><path fill="#000000" d="M53.7,167.2l-29.6-11c-2.2-0.8-3.4-3.3-2.6-5.6l0,0c0.8-2.2,3.3-3.4,5.6-2.6l29.6,11c2.2,0.8,3.4,3.3,2.6,5.6l0,0C58.4,166.9,55.9,168,53.7,167.2z"/><path fill="#000000" d="M12.8,186.2L12.8,186.2c-2.2-0.8-3.4-3.3-2.6-5.6l11-29.6c0.8-2.2,3.3-3.4,5.6-2.6l0,0c2.2,0.8,3.4,3.3,2.6,5.6l-11,29.6C17.6,185.9,15.1,187,12.8,186.2z"/></g></g>
</svg>